ISO-10303-21;
HEADER;
FILE_DESCRIPTION (( 'STEP AP214' ),
    '1' );
FILE_NAME ('L-53ND.STEP',
    '2022-09-16T11:57:21',
    ( '' ),
    ( '' ),
    'SwSTEP 2.0',
    'SolidWorks 2018',
    '' );
FILE_SCHEMA (( 'AUTOMOTIVE_DESIGN' ));
ENDSEC;

DATA;
#1 = CARTESIAN_POINT ( 'NONE',  ( 0.000000000000000000, 1.000000000000000000, 0.000000000000000000 ) ) ;
#2 = ORIENTED_EDGE ( 'NONE', *, *, #645, .F. ) ;
#3 = SURFACE_SIDE_STYLE ('',( #332 ) ) ;
#4 = CIRCLE ( 'NONE', #230, 0.009999999999982486440 ) ;
#5 = ORIENTED_EDGE ( 'NONE', *, *, #469, .F. ) ;
#6 = APPLICATION_CONTEXT ( 'automotive_design' ) ;
#7 = COLOUR_RGB ( '',0.7529411764705882248, 0.7529411764705882248, 0.7529411764705882248 ) ;
#8 =( LENGTH_UNIT ( ) NAMED_UNIT ( * ) SI_UNIT ( .MILLI., .METRE. ) );
#9 = CARTESIAN_POINT ( 'NONE',  ( 3.061616997868383141E-16, 1.000000000000000000, -2.500000000000000000 ) ) ;
#10 = FILL_AREA_STYLE_COLOUR ( '', #51 ) ;
#11 = LINE ( 'NONE', #256, #110 ) ;
#12 = STYLED_ITEM ( 'NONE', ( #338 ), #206 ) ;
#13 = SURFACE_STYLE_FILL_AREA ( #242 ) ;
#14 =( NAMED_UNIT ( * ) PLANE_ANGLE_UNIT ( ) SI_UNIT ( $, .RADIAN. ) );
#15 = DIRECTION ( 'NONE',  ( -0.000000000000000000, 1.000000000000000000, -0.000000000000000000 ) ) ;
#16 = VECTOR ( 'NONE', #483, 1000.000000000000000 ) ;
#17 = EDGE_LOOP ( 'NONE', ( #274, #181, #106, #301 ) ) ;
#18 = VERTEX_POINT ( 'NONE', #210 ) ;
#19 = EDGE_CURVE ( 'NONE', #98, #279, #260, .T. ) ;
#20 = DIRECTION ( 'NONE',  ( 0.000000000000000000, -0.000000000000000000, -1.000000000000000000 ) ) ;
#21 = SURFACE_SIDE_STYLE ('',( #227 ) ) ;
#22 = AXIS2_PLACEMENT_3D ( 'NONE', #615, #158, #362 ) ;
#23 = COLOUR_RGB ( '',0.7529411764705882248, 0.7529411764705882248, 0.7529411764705882248 ) ;
#24 =( NAMED_UNIT ( * ) PLANE_ANGLE_UNIT ( ) SI_UNIT ( $, .RADIAN. ) );
#25 = DIRECTION ( 'NONE',  ( 0.000000000000000000, 0.000000000000000000, 1.000000000000000000 ) ) ;
#26 = CARTESIAN_POINT ( 'NONE',  ( 1.270000000000000018, -25.00000000000000000, 3.217976836734829532E-16 ) ) ;
#27 = EDGE_CURVE ( 'NONE', #139, #18, #444, .T. ) ;
#28 = DIRECTION ( 'NONE',  ( 0.000000000000000000, 0.000000000000000000, 1.000000000000000000 ) ) ;
#29 = LINE ( 'NONE', #602, #89 ) ;
#30 = ORIENTED_EDGE ( 'NONE', *, *, #469, .T. ) ;
#31 = AXIS2_PLACEMENT_3D ( 'NONE', #216, #113, #281 ) ;
#32 = FACE_OUTER_BOUND ( 'NONE', #632, .T. ) ;
#33 = DIRECTION ( 'NONE',  ( -1.000000000000000000, 0.000000000000000000, 0.000000000000000000 ) ) ;
#34 =( LENGTH_UNIT ( ) NAMED_UNIT ( * ) SI_UNIT ( .MILLI., .METRE. ) );
#35 =( GEOMETRIC_REPRESENTATION_CONTEXT ( 3 ) GLOBAL_UNCERTAINTY_ASSIGNED_CONTEXT ( ( #68 ) ) GLOBAL_UNIT_ASSIGNED_CONTEXT ( ( #423, #53, #438 ) ) REPRESENTATION_CONTEXT ( 'NONE', 'WORKASPACE' ) );
#36 = CYLINDRICAL_SURFACE ( 'NONE', #378, 2.500000000000000000 ) ;
#37 = FILL_AREA_STYLE_COLOUR ( '', #246 ) ;
#38 = VERTEX_POINT ( 'NONE', #310 ) ;
#39 = DIRECTION ( 'NONE',  ( -0.000000000000000000, 1.000000000000000000, -0.000000000000000000 ) ) ;
#40 = PRESENTATION_LAYER_ASSIGNMENT (  '', '', ( #598 ) ) ;
#41 = CARTESIAN_POINT ( 'NONE',  ( 1.270000000000000018, -25.00000000000000000, 0.2500000000000002776 ) ) ;
#42 = AXIS2_PLACEMENT_3D ( 'NONE', #275, #488, #240 ) ;
#43 = CARTESIAN_POINT ( 'NONE',  ( 3.612708057484692097E-16, 8.599999999999999645, -2.950000000000000178 ) ) ;
#44 = DIRECTION ( 'NONE',  ( -0.000000000000000000, 1.000000000000000000, -0.000000000000000000 ) ) ;
#45 = FILL_AREA_STYLE_COLOUR ( '', #143 ) ;
#46 = DIRECTION ( 'NONE',  ( 0.000000000000000000, 0.000000000000000000, 1.000000000000000000 ) ) ;
#47 = PRESENTATION_STYLE_ASSIGNMENT (( #628 ) ) ;
#48 = VERTEX_POINT ( 'NONE', #372 ) ;
#49 = SURFACE_STYLE_FILL_AREA ( #140 ) ;
#50 = CLOSED_SHELL ( 'NONE', ( #167, #122, #187, #625, #203, #418, #555, #157, #531, #435, #465 ) ) ;
#51 = COLOUR_RGB ( '',0.7921568627450980005, 0.8196078431372548767, 0.9333333333333333481 ) ;
#52 =( NAMED_UNIT ( * ) SI_UNIT ( $, .STERADIAN. ) SOLID_ANGLE_UNIT ( ) );
#53 =( NAMED_UNIT ( * ) PLANE_ANGLE_UNIT ( ) SI_UNIT ( $, .RADIAN. ) );
#54 = SURFACE_STYLE_USAGE ( .BOTH. , #374 ) ;
#55 = EDGE_CURVE ( 'NONE', #38, #189, #11, .T. ) ;
#56 =( NAMED_UNIT ( * ) PLANE_ANGLE_UNIT ( ) SI_UNIT ( $, .RADIAN. ) );
#57 = STYLED_ITEM ( 'NONE', ( #62 ), #404 ) ;
#58 =( NAMED_UNIT ( * ) PLANE_ANGLE_UNIT ( ) SI_UNIT ( $, .RADIAN. ) );
#59 = EDGE_LOOP ( 'NONE', ( #420, #652 ) ) ;
#60 = SURFACE_STYLE_FILL_AREA ( #84 ) ;
#61 = ADVANCED_BREP_SHAPE_REPRESENTATION ( 'L-53ND', ( #204, #347, #367, #108 ), #35 ) ;
#62 = PRESENTATION_STYLE_ASSIGNMENT (( #71 ) ) ;
#63 = SURFACE_STYLE_USAGE ( .BOTH. , #381 ) ;
#64 = FACE_OUTER_BOUND ( 'NONE', #409, .T. ) ;
#65 = EDGE_CURVE ( 'NONE', #139, #270, #188, .T. ) ;
#66 = PLANE ( 'NONE',  #536 ) ;
#67 = ORIENTED_EDGE ( 'NONE', *, *, #495, .T. ) ;
#68 = UNCERTAINTY_MEASURE_WITH_UNIT (LENGTH_MEASURE( 1.000000000000000082E-05 ), #423, 'distance_accuracy_value', 'NONE');
#69 = CARTESIAN_POINT ( 'NONE',  ( 0.000000000000000000, 8.599999999999999645, 0.000000000000000000 ) ) ;
#70 = DIRECTION ( 'NONE',  ( 0.000000000000000000, -1.000000000000000000, 0.000000000000000000 ) ) ;
#71 = SURFACE_STYLE_USAGE ( .BOTH. , #222 ) ;
#72 = FACE_OUTER_BOUND ( 'NONE', #59, .T. ) ;
#73 = EDGE_LOOP ( 'NONE', ( #300, #433, #350, #82, #170, #268, #341, #112 ) ) ;
#74 = CARTESIAN_POINT ( 'NONE',  ( 2.950000000000000178, 1.000000000000000000, 0.000000000000000000 ) ) ;
#75 = CARTESIAN_POINT ( 'NONE',  ( 1.224646799147356466E-18, 6.110000000000001208, -0.01000000000000002623 ) ) ;
#76 = ADVANCED_FACE ( 'NONE', ( #64 ), #397, .T. ) ;
#77 = EDGE_CURVE ( 'NONE', #594, #333, #252, .T. ) ;
#78 = SURFACE_STYLE_USAGE ( .BOTH. , #298 ) ;
#79 = CARTESIAN_POINT ( 'NONE',  ( 0.000000000000000000, 0.000000000000000000, 0.000000000000000000 ) ) ;
#80 = ORIENTED_EDGE ( 'NONE', *, *, #545, .T. ) ;
#81 = SURFACE_STYLE_FILL_AREA ( #266 ) ;
#82 = ORIENTED_EDGE ( 'NONE', *, *, #138, .F. ) ;
#83 =( NAMED_UNIT ( * ) PLANE_ANGLE_UNIT ( ) SI_UNIT ( $, .RADIAN. ) );
#84 = FILL_AREA_STYLE ('',( #346 ) ) ;
#85 = DIRECTION ( 'NONE',  ( 0.000000000000000000, 0.000000000000000000, 1.000000000000000000 ) ) ;
#86 = AXIS2_PLACEMENT_3D ( 'NONE', #302, #33, #193 ) ;
#87 = EDGE_CURVE ( 'NONE', #244, #279, #339, .T. ) ;
#88 = PRESENTATION_STYLE_ASSIGNMENT (( #124 ) ) ;
#89 = VECTOR ( 'NONE', #647, 1000.000000000000000 ) ;
#90 = ORIENTED_EDGE ( 'NONE', *, *, #554, .F. ) ;
#91 = MECHANICAL_DESIGN_GEOMETRIC_PRESENTATION_REPRESENTATION (  '', ( #57 ), #363 ) ;
#92 = CIRCLE ( 'NONE', #178, 2.489999999999999769 ) ;
#93 = ORIENTED_EDGE ( 'NONE', *, *, #184, .F. ) ;
#94 = DIRECTION ( 'NONE',  ( 0.000000000000000000, -1.000000000000000000, 0.000000000000000000 ) ) ;
#95 = SURFACE_STYLE_USAGE ( .BOTH. , #560 ) ;
#96 = PLANE ( 'NONE',  #145 ) ;
#97 = LINE ( 'NONE', #259, #637 ) ;
#98 = VERTEX_POINT ( 'NONE', #319 ) ;
#99 = VERTEX_POINT ( 'NONE', #105 ) ;
#100 = DIRECTION ( 'NONE',  ( -0.000000000000000000, 1.000000000000000000, -0.000000000000000000 ) ) ;
#101 = EDGE_CURVE ( 'NONE', #38, #18, #258, .T. ) ;
#102 = DIRECTION ( 'NONE',  ( -0.000000000000000000, 1.000000000000000000, 0.000000000000000000 ) ) ;
#103 = SURFACE_STYLE_USAGE ( .BOTH. , #633 ) ;
#104 = PRODUCT ( 'L-53ND', 'L-53ND', '', ( #523 ) ) ;
#105 = CARTESIAN_POINT ( 'NONE',  ( 2.499999999999999556, 0.000000000000000000, 1.566045976336577938 ) ) ;
#106 = ORIENTED_EDGE ( 'NONE', *, *, #101, .F. ) ;
#107 = AXIS2_PLACEMENT_3D ( 'NONE', #368, #100, #528 ) ;
#108 = AXIS2_PLACEMENT_3D ( 'NONE', #413, #622, #315 ) ;
#109 = CARTESIAN_POINT ( 'NONE',  ( 0.000000000000000000, 6.109999999999982556, 0.000000000000000000 ) ) ;
#110 = VECTOR ( 'NONE', #673, 1000.000000000000000 ) ;
#111 = CIRCLE ( 'NONE', #141, 2.950000000000000178 ) ;
#112 = ORIENTED_EDGE ( 'NONE', *, *, #55, .F. ) ;
#113 = DIRECTION ( 'NONE',  ( -0.000000000000000000, 1.000000000000000000, -0.000000000000000000 ) ) ;
#114 = FACE_OUTER_BOUND ( 'NONE', #376, .T. ) ;
#115 = EDGE_LOOP ( 'NONE', ( #30, #67, #639, #90 ) ) ;
#116 = EDGE_CURVE ( 'NONE', #366, #408, #611, .T. ) ;
#117 = ADVANCED_FACE ( 'NONE', ( #618 ), #648, .T. ) ;
#118 = EDGE_LOOP ( 'NONE', ( #219, #430 ) ) ;
#119 = VERTEX_POINT ( 'NONE', #9 ) ;
#120 = DIRECTION ( 'NONE',  ( 0.000000000000000000, 0.000000000000000000, 1.000000000000000000 ) ) ;
#121 = AXIS2_PLACEMENT_3D ( 'NONE', #498, #70, #120 ) ;
#122 = ADVANCED_FACE ( 'NONE', ( #512 ), #500, .T. ) ;
#123 = CARTESIAN_POINT ( 'NONE',  ( -1.270000000000000018, -27.00000000000000355, 1.073739669005522480E-17 ) ) ;
#124 = SURFACE_STYLE_USAGE ( .BOTH. , #596 ) ;
#125 = UNCERTAINTY_MEASURE_WITH_UNIT (LENGTH_MEASURE( 1.000000000000000082E-05 ), #445, 'distance_accuracy_value', 'NONE');
#126 = PLANE ( 'NONE',  #644 ) ;
#127 = ORIENTED_EDGE ( 'NONE', *, *, #554, .T. ) ;
#128 = FACE_OUTER_BOUND ( 'NONE', #73, .T. ) ;
#129 = DIRECTION ( 'NONE',  ( -0.000000000000000000, 1.000000000000000000, -0.000000000000000000 ) ) ;
#130 = LINE ( 'NONE', #510, #313 ) ;
#131 = CARTESIAN_POINT ( 'NONE',  ( 0.000000000000000000, 6.110000000000001208, 0.000000000000000000 ) ) ;
#132 = AXIS2_PLACEMENT_3D ( 'NONE', #515, #567, #572 ) ;
#133 =( NAMED_UNIT ( * ) SI_UNIT ( $, .STERADIAN. ) SOLID_ANGLE_UNIT ( ) );
#134 = DIRECTION ( 'NONE',  ( -0.000000000000000000, 1.000000000000000000, -0.000000000000000000 ) ) ;
#135 = DIRECTION ( 'NONE',  ( 0.000000000000000000, 0.000000000000000000, -1.000000000000000000 ) ) ;
#136 = DIRECTION ( 'NONE',  ( -0.000000000000000000, 1.000000000000000000, -0.000000000000000000 ) ) ;
#137 = ORIENTED_EDGE ( 'NONE', *, *, #272, .T. ) ;
#138 = EDGE_CURVE ( 'NONE', #189, #571, #29, .T. ) ;
#139 = VERTEX_POINT ( 'NONE', #448 ) ;
#140 = FILL_AREA_STYLE ('',( #416 ) ) ;
#141 = AXIS2_PLACEMENT_3D ( 'NONE', #250, #202, #356 ) ;
#142 = CARTESIAN_POINT ( 'NONE',  ( 0.000000000000000000, 1.000000000000000000, 2.950000000000000178 ) ) ;
#143 = COLOUR_RGB ( '',0.9098039215686274384, 0.4431372549019607643, 0.03137254901960784270 ) ;
#144 = DIRECTION ( 'NONE',  ( -0.000000000000000000, 1.000000000000000000, -0.000000000000000000 ) ) ;
#145 = AXIS2_PLACEMENT_3D ( 'NONE', #308, #676, #577 ) ;
#146 = FACE_OUTER_BOUND ( 'NONE', #542, .T. ) ;
#147 = CARTESIAN_POINT ( 'NONE',  ( 1.270000000000000018, 0.000000000000000000, -0.2499999999999996392 ) ) ;
#148 = PRESENTATION_LAYER_ASSIGNMENT (  '', '', ( #12 ) ) ;
#149 = PRODUCT_RELATED_PRODUCT_CATEGORY ( 'part', '', ( #104 ) ) ;
#150 = FACE_OUTER_BOUND ( 'NONE', #481, .T. ) ;
#151 =( NAMED_UNIT ( * ) SI_UNIT ( $, .STERADIAN. ) SOLID_ANGLE_UNIT ( ) );
#152 = UNCERTAINTY_MEASURE_WITH_UNIT (LENGTH_MEASURE( 1.000000000000000082E-05 ), #476, 'distance_accuracy_value', 'NONE');
#153 = CARTESIAN_POINT ( 'NONE',  ( 0.000000000000000000, 0.000000000000000000, 2.950000000000000178 ) ) ;
#154 = FILL_AREA_STYLE_COLOUR ( '', #309 ) ;
#155 = SURFACE_STYLE_USAGE ( .BOTH. , #207 ) ;
#156 = CARTESIAN_POINT ( 'NONE',  ( 0.000000000000000000, 0.000000000000000000, 0.000000000000000000 ) ) ;
#157 = ADVANCED_FACE ( 'NONE', ( #466 ), #36, .T. ) ;
#158 = DIRECTION ( 'NONE',  ( -0.000000000000000000, 1.000000000000000000, -0.000000000000000000 ) ) ;
#159 = ORIENTED_EDGE ( 'NONE', *, *, #277, .T. ) ;
#160 = ORIENTED_EDGE ( 'NONE', *, *, #387, .F. ) ;
#161 = DIRECTION ( 'NONE',  ( 0.000000000000000000, 0.000000000000000000, 1.000000000000000000 ) ) ;
#162 = FACE_OUTER_BOUND ( 'NONE', #538, .T. ) ;
#163 = EDGE_CURVE ( 'NONE', #244, #592, #325, .T. ) ;
#164 =( LENGTH_UNIT ( ) NAMED_UNIT ( * ) SI_UNIT ( .MILLI., .METRE. ) );
#165 = AXIS2_PLACEMENT_3D ( 'NONE', #643, #457, #228 ) ;
#166 = MECHANICAL_DESIGN_GEOMETRIC_PRESENTATION_REPRESENTATION (  '', ( #305 ), #201 ) ;
#167 = ADVANCED_FACE ( 'NONE', ( #443 ), #561, .T. ) ;
#168 = CARTESIAN_POINT ( 'NONE',  ( 0.000000000000000000, 8.599999999999999645, 2.500000000000000000 ) ) ;
#169 = SURFACE_STYLE_FILL_AREA ( #344 ) ;
#170 = ORIENTED_EDGE ( 'NONE', *, *, #365, .F. ) ;
#171 = FILL_AREA_STYLE ('',( #491 ) ) ;
#172 = AXIS2_PLACEMENT_3D ( 'NONE', #360, #527, #323 ) ;
#173 = CARTESIAN_POINT ( 'NONE',  ( -1.270000000000000018, -27.00000000000000355, 1.073739669005522480E-17 ) ) ;
#174 = ORIENTED_EDGE ( 'NONE', *, *, #19, .F. ) ;
#175 = ORIENTED_EDGE ( 'NONE', *, *, #116, .F. ) ;
#176 =( LENGTH_UNIT ( ) NAMED_UNIT ( * ) SI_UNIT ( .MILLI., .METRE. ) );
#177 = FACE_OUTER_BOUND ( 'NONE', #192, .T. ) ;
#178 = AXIS2_PLACEMENT_3D ( 'NONE', #75, #658, #398 ) ;
#179 = EDGE_CURVE ( 'NONE', #189, #119, #375, .T. ) ;
#180 = PLANE ( 'NONE',  #269 ) ;
#181 = ORIENTED_EDGE ( 'NONE', *, *, #27, .T. ) ;
#182 = CARTESIAN_POINT ( 'NONE',  ( 0.000000000000000000, 8.599999999999999645, 2.950000000000000178 ) ) ;
#183 =( GEOMETRIC_REPRESENTATION_CONTEXT ( 3 ) GLOBAL_UNCERTAINTY_ASSIGNED_CONTEXT ( ( #546 ) ) GLOBAL_UNIT_ASSIGNED_CONTEXT ( ( #164, #379, #635 ) ) REPRESENTATION_CONTEXT ( 'NONE', 'WORKASPACE' ) );
#184 = EDGE_CURVE ( 'NONE', #270, #666, #600, .T. ) ;
#185 = DIRECTION ( 'NONE',  ( -0.000000000000000000, 1.000000000000000000, 0.000000000000000000 ) ) ;
#186 = DIRECTION ( 'NONE',  ( 0.000000000000000000, 0.000000000000000000, 1.000000000000000000 ) ) ;
#187 = ADVANCED_FACE ( 'NONE', ( #485 ), #450, .T. ) ;
#188 = CIRCLE ( 'NONE', #605, 2.950000000000000178 ) ;
#189 = VERTEX_POINT ( 'NONE', #586 ) ;
#190 = CARTESIAN_POINT ( 'NONE',  ( 0.000000000000000000, 8.599999999999999645, 0.000000000000000000 ) ) ;
#191 = CIRCLE ( 'NONE', #304, 2.950000000000000178 ) ;
#192 = EDGE_LOOP ( 'NONE', ( #369, #548, #80, #289 ) ) ;
#193 = DIRECTION ( 'NONE',  ( 0.000000000000000000, 0.000000000000000000, 1.000000000000000000 ) ) ;
#194 = DIRECTION ( 'NONE',  ( -0.000000000000000000, 1.000000000000000000, -0.000000000000000000 ) ) ;
#195 = EDGE_CURVE ( 'NONE', #601, #99, #407, .T. ) ;
#196 = PRESENTATION_LAYER_ASSIGNMENT (  '', '', ( #353 ) ) ;
#197 = CARTESIAN_POINT ( 'NONE',  ( 1.270000000000000018, -25.00000000000000000, 3.217976836734829532E-16 ) ) ;
#198 = DIRECTION ( 'NONE',  ( 0.000000000000000000, -0.000000000000000000, -1.000000000000000000 ) ) ;
#199 = MECHANICAL_DESIGN_GEOMETRIC_PRESENTATION_REPRESENTATION (  '', ( #588 ), #403 ) ;
#200 = ORIENTED_EDGE ( 'NONE', *, *, #674, .T. ) ;
#201 =( GEOMETRIC_REPRESENTATION_CONTEXT ( 3 ) GLOBAL_UNCERTAINTY_ASSIGNED_CONTEXT ( ( #624 ) ) GLOBAL_UNIT_ASSIGNED_CONTEXT ( ( #631, #679, #52 ) ) REPRESENTATION_CONTEXT ( 'NONE', 'WORKASPACE' ) );
#202 = DIRECTION ( 'NONE',  ( -0.000000000000000000, 1.000000000000000000, -0.000000000000000000 ) ) ;
#203 = ADVANCED_FACE ( 'NONE', ( #114 ), #576, .F. ) ;
#204 = MANIFOLD_SOLID_BREP ( 'Cut-Extrude1', #50 ) ;
#205 = CARTESIAN_POINT ( 'NONE',  ( 3.061616997868383141E-16, 6.109999999999982556, -2.500000000000000000 ) ) ;
#206 = ADVANCED_FACE ( 'NONE', ( #72 ), #96, .T. ) ;
#207 = SURFACE_SIDE_STYLE ('',( #307 ) ) ;
#208 = CARTESIAN_POINT ( 'NONE',  ( -1.270000000000000018, -27.00000000000000355, 1.073739669005522480E-17 ) ) ;
#209 = PRODUCT_DEFINITION_CONTEXT ( 'detailed design', #6, 'design' ) ;
#210 = CARTESIAN_POINT ( 'NONE',  ( 3.612708057484692097E-16, 1.000000000000000000, -2.950000000000000178 ) ) ;
#211 = EDGE_LOOP ( 'NONE', ( #174, #451 ) ) ;
#212 = ORIENTED_EDGE ( 'NONE', *, *, #505, .F. ) ;
#213 =( NAMED_UNIT ( * ) SI_UNIT ( $, .STERADIAN. ) SOLID_ANGLE_UNIT ( ) );
#214 = AXIS2_PLACEMENT_3D ( 'NONE', #425, #520, #677 ) ;
#215 = DIRECTION ( 'NONE',  ( 0.000000000000000000, 0.000000000000000000, 1.000000000000000000 ) ) ;
#216 = CARTESIAN_POINT ( 'NONE',  ( 1.270000000000000018, -25.00000000000000000, 3.217976836734829532E-16 ) ) ;
#217 = ORIENTED_EDGE ( 'NONE', *, *, #627, .F. ) ;
#218 = CIRCLE ( 'NONE', #249, 2.500000000000000000 ) ;
#219 = ORIENTED_EDGE ( 'NONE', *, *, #116, .T. ) ;
#220 = MECHANICAL_DESIGN_GEOMETRIC_PRESENTATION_REPRESENTATION (  '', ( #553 ), #257 ) ;
#221 = MECHANICAL_DESIGN_GEOMETRIC_PRESENTATION_REPRESENTATION (  '', ( #12 ), #261 ) ;
#222 = SURFACE_SIDE_STYLE ('',( #590 ) ) ;
#223 = EDGE_LOOP ( 'NONE', ( #358, #671, #607, #612 ) ) ;
#224 = SURFACE_STYLE_USAGE ( .BOTH. , #21 ) ;
#225 = ORIENTED_EDGE ( 'NONE', *, *, #77, .F. ) ;
#226 = DIRECTION ( 'NONE',  ( 0.000000000000000000, 0.000000000000000000, 1.000000000000000000 ) ) ;
#227 = SURFACE_STYLE_FILL_AREA ( #171 ) ;
#228 = DIRECTION ( 'NONE',  ( -4.336808689942017736E-16, -1.000000000000000000, 0.000000000000000000 ) ) ;
#229 = CARTESIAN_POINT ( 'NONE',  ( -1.270000000000000018, 0.000000000000000000, 1.073739669005522480E-17 ) ) ;
#230 = AXIS2_PLACEMENT_3D ( 'NONE', #190, #136, #354 ) ;
#231 = EDGE_CURVE ( 'NONE', #592, #244, #382, .T. ) ;
#232 = PRODUCT_DEFINITION_FORMATION_WITH_SPECIFIED_SOURCE ( 'ANY', '', #104, .NOT_KNOWN. ) ;
#233 = PLANE ( 'NONE',  #614 ) ;
#234 = ORIENTED_EDGE ( 'NONE', *, *, #87, .F. ) ;
#235 = ORIENTED_EDGE ( 'NONE', *, *, #138, .T. ) ;
#236 = CARTESIAN_POINT ( 'NONE',  ( 1.270000000000000018, 0.000000000000000000, 3.217976836734829532E-16 ) ) ;
#237 =( GEOMETRIC_REPRESENTATION_CONTEXT ( 3 ) GLOBAL_UNCERTAINTY_ASSIGNED_CONTEXT ( ( #492 ) ) GLOBAL_UNIT_ASSIGNED_CONTEXT ( ( #558, #24, #502 ) ) REPRESENTATION_CONTEXT ( 'NONE', 'WORKASPACE' ) );
#238 = PRESENTATION_LAYER_ASSIGNMENT (  '', '', ( #284 ) ) ;
#239 = CARTESIAN_POINT ( 'NONE',  ( 1.536931732929917353E-16, 8.599999999999999645, -0.009999999999982486440 ) ) ;
#240 = DIRECTION ( 'NONE',  ( 0.000000000000000000, 0.000000000000000000, 1.000000000000000000 ) ) ;
#241 =( LENGTH_UNIT ( ) NAMED_UNIT ( * ) SI_UNIT ( .MILLI., .METRE. ) );
#242 = FILL_AREA_STYLE ('',( #291 ) ) ;
#243 = DIRECTION ( 'NONE',  ( 0.000000000000000000, 0.000000000000000000, 1.000000000000000000 ) ) ;
#244 = VERTEX_POINT ( 'NONE', #312 ) ;
#245 = CARTESIAN_POINT ( 'NONE',  ( 0.000000000000000000, 6.110000000000001208, 0.000000000000000000 ) ) ;
#246 = COLOUR_RGB ( '',0.7921568627450980005, 0.8196078431372548767, 0.9333333333333333481 ) ;
#247 = ORIENTED_EDGE ( 'NONE', *, *, #387, .T. ) ;
#248 = EDGE_CURVE ( 'NONE', #18, #666, #670, .T. ) ;
#249 = AXIS2_PLACEMENT_3D ( 'NONE', #514, #39, #255 ) ;
#250 = CARTESIAN_POINT ( 'NONE',  ( 0.000000000000000000, 1.000000000000000000, 0.000000000000000000 ) ) ;
#251 = AXIS2_PLACEMENT_3D ( 'NONE', #131, #507, #467 ) ;
#252 = CIRCLE ( 'NONE', #462, 0.2499999999999999445 ) ;
#253 = EDGE_LOOP ( 'NONE', ( #217, #175, #200, #468 ) ) ;
#254 = CARTESIAN_POINT ( 'NONE',  ( 0.000000000000000000, 8.599999999999999645, 0.000000000000000000 ) ) ;
#255 = DIRECTION ( 'NONE',  ( 0.000000000000000000, 0.000000000000000000, 1.000000000000000000 ) ) ;
#256 = CARTESIAN_POINT ( 'NONE',  ( 2.500000000000000000, 1.000000000000000000, -2.950000000000000178 ) ) ;
#257 =( GEOMETRIC_REPRESENTATION_CONTEXT ( 3 ) GLOBAL_UNCERTAINTY_ASSIGNED_CONTEXT ( ( #388 ) ) GLOBAL_UNIT_ASSIGNED_CONTEXT ( ( #8, #58, #484 ) ) REPRESENTATION_CONTEXT ( 'NONE', 'WORKASPACE' ) );
#258 = CIRCLE ( 'NONE', #214, 2.950000000000000178 ) ;
#259 = CARTESIAN_POINT ( 'NONE',  ( 3.061616997868383141E-16, 8.599999999999999645, -2.500000000000000000 ) ) ;
#260 = CIRCLE ( 'NONE', #132, 0.2499999999999999445 ) ;
#261 =( GEOMETRIC_REPRESENTATION_CONTEXT ( 3 ) GLOBAL_UNCERTAINTY_ASSIGNED_CONTEXT ( ( #581 ) ) GLOBAL_UNIT_ASSIGNED_CONTEXT ( ( #364, #669, #213 ) ) REPRESENTATION_CONTEXT ( 'NONE', 'WORKASPACE' ) );
#262 = FACE_OUTER_BOUND ( 'NONE', #223, .T. ) ;
#263 = CARTESIAN_POINT ( 'NONE',  ( -1.270000000000000018, 0.000000000000000000, 0.2499999999999999445 ) ) ;
#264 = DIRECTION ( 'NONE',  ( 0.000000000000000000, -1.000000000000000000, 0.000000000000000000 ) ) ;
#265 = MECHANICAL_DESIGN_GEOMETRIC_PRESENTATION_REPRESENTATION (  '', ( #598 ), #237 ) ;
#266 = FILL_AREA_STYLE ('',( #37 ) ) ;
#267 = FILL_AREA_STYLE ('',( #306 ) ) ;
#268 = ORIENTED_EDGE ( 'NONE', *, *, #616, .F. ) ;
#269 = AXIS2_PLACEMENT_3D ( 'NONE', #74, #568, #198 ) ;
#270 = VERTEX_POINT ( 'NONE', #153 ) ;
#271 = DIRECTION ( 'NONE',  ( -0.000000000000000000, 1.000000000000000000, -0.000000000000000000 ) ) ;
#272 = EDGE_CURVE ( 'NONE', #119, #326, #97, .T. ) ;
#273 = COLOUR_RGB ( '',0.7529411764705882248, 0.7529411764705882248, 0.7529411764705882248 ) ;
#274 = ORIENTED_EDGE ( 'NONE', *, *, #589, .T. ) ;
#275 = CARTESIAN_POINT ( 'NONE',  ( 0.000000000000000000, 8.599999999999999645, 0.000000000000000000 ) ) ;
#276 = PRESENTATION_LAYER_ASSIGNMENT (  '', '', ( #460 ) ) ;
#277 = EDGE_CURVE ( 'NONE', #592, #98, #396, .T. ) ;
#278 = FILL_AREA_STYLE ('',( #427 ) ) ;
#279 = VERTEX_POINT ( 'NONE', #147 ) ;
#280 = CIRCLE ( 'NONE', #609, 0.2499999999999999445 ) ;
#281 = DIRECTION ( 'NONE',  ( 0.000000000000000000, 0.000000000000000000, 1.000000000000000000 ) ) ;
#282 = CIRCLE ( 'NONE', #656, 2.500000000000000000 ) ;
#283 = DIRECTION ( 'NONE',  ( -0.000000000000000000, 1.000000000000000000, -0.000000000000000000 ) ) ;
#284 = STYLED_ITEM ( 'NONE', ( #293 ), #117 ) ;
#285 = DIRECTION ( 'NONE',  ( 0.000000000000000000, -1.000000000000000000, 0.000000000000000000 ) ) ;
#286 =( NAMED_UNIT ( * ) SI_UNIT ( $, .STERADIAN. ) SOLID_ANGLE_UNIT ( ) );
#287 = ORIENTED_EDGE ( 'NONE', *, *, #231, .F. ) ;
#288 = STYLED_ITEM ( 'NONE', ( #391 ), #347 ) ;
#289 = ORIENTED_EDGE ( 'NONE', *, *, #277, .F. ) ;
#290 = SURFACE_STYLE_FILL_AREA ( #490 ) ;
#291 = FILL_AREA_STYLE_COLOUR ( '', #434 ) ;
#292 = DIRECTION ( 'NONE',  ( 0.000000000000000000, 0.000000000000000000, -1.000000000000000000 ) ) ;
#293 = PRESENTATION_STYLE_ASSIGNMENT (( #63 ) ) ;
#294 = CIRCLE ( 'NONE', #371, 2.950000000000000178 ) ;
#295 = DIRECTION ( 'NONE',  ( 0.000000000000000000, -0.000000000000000000, -1.000000000000000000 ) ) ;
#296 = PRESENTATION_LAYER_ASSIGNMENT (  '', '', ( #57 ) ) ;
#297 = EDGE_CURVE ( 'NONE', #326, #48, #578, .T. ) ;
#298 = SURFACE_SIDE_STYLE ('',( #60 ) ) ;
#299 =( NAMED_UNIT ( * ) SI_UNIT ( $, .STERADIAN. ) SOLID_ANGLE_UNIT ( ) );
#300 = ORIENTED_EDGE ( 'NONE', *, *, #101, .T. ) ;
#301 = ORIENTED_EDGE ( 'NONE', *, *, #681, .T. ) ;
#302 = CARTESIAN_POINT ( 'NONE',  ( 0.000000000000000000, 6.110000000000001208, 0.01000000000000002623 ) ) ;
#303 = DIRECTION ( 'NONE',  ( -0.000000000000000000, 1.000000000000000000, -0.000000000000000000 ) ) ;
#304 = AXIS2_PLACEMENT_3D ( 'NONE', #471, #134, #85 ) ;
#305 = STYLED_ITEM ( 'NONE', ( #47 ), #76 ) ;
#306 = FILL_AREA_STYLE_COLOUR ( '', #480 ) ;
#307 = SURFACE_STYLE_FILL_AREA ( #516 ) ;
#308 = CARTESIAN_POINT ( 'NONE',  ( 1.270000000000000018, -25.00000000000000000, 3.217976836734829532E-16 ) ) ;
#309 = COLOUR_RGB ( '',0.7529411764705882248, 0.7529411764705882248, 0.7529411764705882248 ) ;
#310 = CARTESIAN_POINT ( 'NONE',  ( 2.500000000000000000, 1.000000000000000000, -1.566045976336583045 ) ) ;
#311 = ORIENTED_EDGE ( 'NONE', *, *, #575, .T. ) ;
#312 = CARTESIAN_POINT ( 'NONE',  ( 1.270000000000000018, -25.00000000000000000, -0.2499999999999996392 ) ) ;
#313 = VECTOR ( 'NONE', #668, 1000.000000000000000 ) ;
#314 = UNCERTAINTY_MEASURE_WITH_UNIT (LENGTH_MEASURE( 1.000000000000000082E-05 ), #389, 'distance_accuracy_value', 'NONE');
#315 = DIRECTION ( 'NONE',  ( 1.000000000000000000, 0.000000000000000000, 0.000000000000000000 ) ) ;
#316 = ORIENTED_EDGE ( 'NONE', *, *, #297, .F. ) ;
#317 = MECHANICAL_DESIGN_GEOMETRIC_PRESENTATION_REPRESENTATION (  '', ( #284 ), #352 ) ;
#318 =( GEOMETRIC_REPRESENTATION_CONTEXT ( 3 ) GLOBAL_UNCERTAINTY_ASSIGNED_CONTEXT ( ( #410 ) ) GLOBAL_UNIT_ASSIGNED_CONTEXT ( ( #34, #608, #299 ) ) REPRESENTATION_CONTEXT ( 'NONE', 'WORKASPACE' ) );
#319 = CARTESIAN_POINT ( 'NONE',  ( 1.270000000000000018, 0.000000000000000000, 0.2500000000000002776 ) ) ;
#320 = EDGE_LOOP ( 'NONE', ( #513, #137, #5, #160, #638 ) ) ;
#321 = ORIENTED_EDGE ( 'NONE', *, *, #495, .F. ) ;
#322 = PRESENTATION_LAYER_ASSIGNMENT (  '', '', ( #588 ) ) ;
#323 = DIRECTION ( 'NONE',  ( 0.000000000000000000, 0.000000000000000000, 1.000000000000000000 ) ) ;
#324 = DIRECTION ( 'NONE',  ( -0.000000000000000000, 1.000000000000000000, -0.000000000000000000 ) ) ;
#325 = CIRCLE ( 'NONE', #657, 0.2499999999999999445 ) ;
#326 = VERTEX_POINT ( 'NONE', #205 ) ;
#327 = PRESENTATION_LAYER_ASSIGNMENT (  '', '', ( #553 ) ) ;
#328 = AXIS2_PLACEMENT_3D ( 'NONE', #245, #129, #186 ) ;
#329 = MECHANICAL_DESIGN_GEOMETRIC_PRESENTATION_REPRESENTATION (  '', ( #353 ), #318 ) ;
#330 =( NAMED_UNIT ( * ) PLANE_ANGLE_UNIT ( ) SI_UNIT ( $, .RADIAN. ) );
#331 = AXIS2_PLACEMENT_3D ( 'NONE', #340, #345, #559 ) ;
#332 = SURFACE_STYLE_FILL_AREA ( #267 ) ;
#333 = VERTEX_POINT ( 'NONE', #263 ) ;
#334 = VECTOR ( 'NONE', #613, 1000.000000000000000 ) ;
#335 = CARTESIAN_POINT ( 'NONE',  ( 0.000000000000000000, 6.109999999999982556, 0.000000000000000000 ) ) ;
#336 = DIRECTION ( 'NONE',  ( 0.000000000000000000, 0.000000000000000000, 1.000000000000000000 ) ) ;
#337 = DIRECTION ( 'NONE',  ( -0.000000000000000000, 1.000000000000000000, 0.000000000000000000 ) ) ;
#338 = PRESENTATION_STYLE_ASSIGNMENT (( #155 ) ) ;
#339 = LINE ( 'NONE', #437, #461 ) ;
#340 = CARTESIAN_POINT ( 'NONE',  ( 0.000000000000000000, 8.599999999999999645, 0.000000000000000000 ) ) ;
#341 = ORIENTED_EDGE ( 'NONE', *, *, #179, .F. ) ;
#342 = AXIS2_PLACEMENT_3D ( 'NONE', #156, #102, #439 ) ;
#343 = LINE ( 'NONE', #569, #620 ) ;
#344 = FILL_AREA_STYLE ('',( #45 ) ) ;
#345 = DIRECTION ( 'NONE',  ( -0.000000000000000000, 1.000000000000000000, -0.000000000000000000 ) ) ;
#346 = FILL_AREA_STYLE_COLOUR ( '', #273 ) ;
#347 = MANIFOLD_SOLID_BREP ( 'Move Face1', #399 ) ;
#348 = ORIENTED_EDGE ( 'NONE', *, *, #272, .F. ) ;
#349 = CYLINDRICAL_SURFACE ( 'NONE', #470, 2.950000000000000178 ) ;
#350 = ORIENTED_EDGE ( 'NONE', *, *, #645, .T. ) ;
#351 = DIRECTION ( 'NONE',  ( -0.000000000000000000, 1.000000000000000000, -0.000000000000000000 ) ) ;
#352 =( GEOMETRIC_REPRESENTATION_CONTEXT ( 3 ) GLOBAL_UNCERTAINTY_ASSIGNED_CONTEXT ( ( #125 ) ) GLOBAL_UNIT_ASSIGNED_CONTEXT ( ( #445, #14, #447 ) ) REPRESENTATION_CONTEXT ( 'NONE', 'WORKASPACE' ) );
#353 = STYLED_ITEM ( 'NONE', ( #549 ), #617 ) ;
#354 = DIRECTION ( 'NONE',  ( 0.000000000000000000, 0.000000000000000000, 1.000000000000000000 ) ) ;
#355 = DIRECTION ( 'NONE',  ( -0.000000000000000000, 1.000000000000000000, -0.000000000000000000 ) ) ;
#356 = DIRECTION ( 'NONE',  ( 0.000000000000000000, 0.000000000000000000, 1.000000000000000000 ) ) ;
#357 = ORIENTED_EDGE ( 'NONE', *, *, #65, .F. ) ;
#358 = ORIENTED_EDGE ( 'NONE', *, *, #27, .F. ) ;
#359 = DIRECTION ( 'NONE',  ( -0.000000000000000000, 1.000000000000000000, -0.000000000000000000 ) ) ;
#360 = CARTESIAN_POINT ( 'NONE',  ( -1.270000000000000018, -25.00000000000000000, 1.073739669005522480E-17 ) ) ;
#361 = CARTESIAN_POINT ( 'NONE',  ( 2.499999999999999556, 0.000000000000000000, -1.566045976336577716 ) ) ;
#362 = DIRECTION ( 'NONE',  ( 0.000000000000000000, 0.000000000000000000, 1.000000000000000000 ) ) ;
#363 =( GEOMETRIC_REPRESENTATION_CONTEXT ( 3 ) GLOBAL_UNCERTAINTY_ASSIGNED_CONTEXT ( ( #314 ) ) GLOBAL_UNIT_ASSIGNED_CONTEXT ( ( #389, #330, #591 ) ) REPRESENTATION_CONTEXT ( 'NONE', 'WORKASPACE' ) );
#364 =( LENGTH_UNIT ( ) NAMED_UNIT ( * ) SI_UNIT ( .MILLI., .METRE. ) );
#365 = EDGE_CURVE ( 'NONE', #556, #189, #456, .T. ) ;
#366 = VERTEX_POINT ( 'NONE', #519 ) ;
#367 = MANIFOLD_SOLID_BREP ( 'Boss-Extrude1[2]', #455 ) ;
#368 = CARTESIAN_POINT ( 'NONE',  ( 0.000000000000000000, 1.000000000000000000, 0.000000000000000000 ) ) ;
#369 = ORIENTED_EDGE ( 'NONE', *, *, #163, .F. ) ;
#370 = CYLINDRICAL_SURFACE ( 'NONE', #31, 0.2499999999999999445 ) ;
#371 = AXIS2_PLACEMENT_3D ( 'NONE', #79, #351, #25 ) ;
#372 = CARTESIAN_POINT ( 'NONE',  ( 0.000000000000000000, 6.109999999999982556, 2.500000000000000000 ) ) ;
#373 = APPLICATION_PROTOCOL_DEFINITION ( 'draft international standard', 'automotive_design', 1998, #518 ) ;
#374 = SURFACE_SIDE_STYLE ('',( #290 ) ) ;
#375 = CIRCLE ( 'NONE', #107, 2.500000000000000000 ) ;
#376 = EDGE_LOOP ( 'NONE', ( #525, #474, #212, #357 ) ) ;
#377 = AXIS2_PLACEMENT_3D ( 'NONE', #109, #440, #534 ) ;
#378 = AXIS2_PLACEMENT_3D ( 'NONE', #69, #497, #28 ) ;
#379 =( NAMED_UNIT ( * ) PLANE_ANGLE_UNIT ( ) SI_UNIT ( $, .RADIAN. ) );
#380 = DIRECTION ( 'NONE',  ( 0.000000000000000000, 0.000000000000000000, 1.000000000000000000 ) ) ;
#381 = SURFACE_SIDE_STYLE ('',( #417 ) ) ;
#382 = CIRCLE ( 'NONE', #482, 0.2499999999999999445 ) ;
#383 = ORIENTED_EDGE ( 'NONE', *, *, #505, .T. ) ;
#384 = DIRECTION ( 'NONE',  ( 0.000000000000000000, -1.000000000000000000, 0.000000000000000000 ) ) ;
#385 = VERTEX_POINT ( 'NONE', #540 ) ;
#386 = CYLINDRICAL_SURFACE ( 'NONE', #436, 2.950000000000000178 ) ;
#387 = EDGE_CURVE ( 'NONE', #556, #48, #526, .T. ) ;
#388 = UNCERTAINTY_MEASURE_WITH_UNIT (LENGTH_MEASURE( 1.000000000000000082E-05 ), #8, 'distance_accuracy_value', 'NONE');
#389 =( LENGTH_UNIT ( ) NAMED_UNIT ( * ) SI_UNIT ( .MILLI., .METRE. ) );
#390 = PLANE ( 'NONE',  #165 ) ;
#391 = PRESENTATION_STYLE_ASSIGNMENT (( #103 ) ) ;
#392 = AXIS2_PLACEMENT_3D ( 'NONE', #1, #487, #380 ) ;
#393 = ORIENTED_EDGE ( 'NONE', *, *, #400, .F. ) ;
#394 = ADVANCED_FACE ( 'NONE', ( #541 ), #646, .T. ) ;
#395 = DIRECTION ( 'NONE',  ( 0.000000000000000000, -1.000000000000000000, 0.000000000000000000 ) ) ;
#396 = LINE ( 'NONE', #41, #16 ) ;
#397 = CYLINDRICAL_SURFACE ( 'NONE', #172, 0.2499999999999999445 ) ;
#398 = DIRECTION ( 'NONE',  ( 1.224646799147353207E-16, 0.000000000000000000, -1.000000000000000000 ) ) ;
#399 = CLOSED_SHELL ( 'NONE', ( #76, #117, #521, #394 ) ) ;
#400 = EDGE_CURVE ( 'NONE', #333, #594, #424, .T. ) ;
#401 = FACE_OUTER_BOUND ( 'NONE', #211, .T. ) ;
#402 = DIRECTION ( 'NONE',  ( 0.000000000000000000, 0.000000000000000000, 1.000000000000000000 ) ) ;
#403 =( GEOMETRIC_REPRESENTATION_CONTEXT ( 3 ) GLOBAL_UNCERTAINTY_ASSIGNED_CONTEXT ( ( #442 ) ) GLOBAL_UNIT_ASSIGNED_CONTEXT ( ( #176, #593, #286 ) ) REPRESENTATION_CONTEXT ( 'NONE', 'WORKASPACE' ) );
#404 = ADVANCED_FACE ( 'NONE', ( #177 ), #370, .T. ) ;
#405 = DIRECTION ( 'NONE',  ( 0.000000000000000000, -1.000000000000000000, 0.000000000000000000 ) ) ;
#406 = DIRECTION ( 'NONE',  ( -0.000000000000000000, 1.000000000000000000, -0.000000000000000000 ) ) ;
#407 = LINE ( 'NONE', #629, #415 ) ;
#408 = VERTEX_POINT ( 'NONE', #543 ) ;
#409 = EDGE_LOOP ( 'NONE', ( #453, #606, #522, #501 ) ) ;
#410 = UNCERTAINTY_MEASURE_WITH_UNIT (LENGTH_MEASURE( 1.000000000000000082E-05 ), #34, 'distance_accuracy_value', 'NONE');
#411 = PRODUCT_DEFINITION ( 'UNKNOWN', '', #232, #209 ) ;
#412 = CARTESIAN_POINT ( 'NONE',  ( 2.500000000000000000, 1.000000000000000000, 1.566045976336583045 ) ) ;
#413 = CARTESIAN_POINT ( 'NONE',  ( 0.000000000000000000, 0.000000000000000000, 0.000000000000000000 ) ) ;
#414 = MECHANICAL_DESIGN_GEOMETRIC_PRESENTATION_REPRESENTATION (  '', ( #288 ), #183 ) ;
#415 = VECTOR ( 'NONE', #432, 1000.000000000000000 ) ;
#416 = FILL_AREA_STYLE_COLOUR ( '', #454 ) ;
#417 = SURFACE_STYLE_FILL_AREA ( #585 ) ;
#418 = ADVANCED_FACE ( 'NONE', ( #150 ), #386, .T. ) ;
#419 = DIRECTION ( 'NONE',  ( 0.000000000000000000, 0.000000000000000000, -1.000000000000000000 ) ) ;
#420 = ORIENTED_EDGE ( 'NONE', *, *, #231, .T. ) ;
#421 = PRESENTATION_STYLE_ASSIGNMENT (( #78 ) ) ;
#422 = CYLINDRICAL_SURFACE ( 'NONE', #429, 0.2499999999999999445 ) ;
#423 =( LENGTH_UNIT ( ) NAMED_UNIT ( * ) SI_UNIT ( .MILLI., .METRE. ) );
#424 = CIRCLE ( 'NONE', #121, 0.2499999999999999445 ) ;
#425 = CARTESIAN_POINT ( 'NONE',  ( 0.000000000000000000, 1.000000000000000000, 0.000000000000000000 ) ) ;
#426 = FILL_AREA_STYLE_COLOUR ( '', #23 ) ;
#427 = FILL_AREA_STYLE_COLOUR ( '', #680 ) ;
#428 = STYLED_ITEM ( 'NONE', ( #88 ), #204 ) ;
#429 = AXIS2_PLACEMENT_3D ( 'NONE', #197, #406, #565 ) ;
#430 = ORIENTED_EDGE ( 'NONE', *, *, #446, .T. ) ;
#431 = APPLICATION_PROTOCOL_DEFINITION ( 'draft international standard', 'automotive_design', 1998, #6 ) ;
#432 = DIRECTION ( 'NONE',  ( -0.000000000000000000, -0.000000000000000000, 1.000000000000000000 ) ) ;
#433 = ORIENTED_EDGE ( 'NONE', *, *, #248, .T. ) ;
#434 = COLOUR_RGB ( '',0.7529411764705882248, 0.7529411764705882248, 0.7529411764705882248 ) ;
#435 = ADVANCED_FACE ( 'NONE', ( #573 ), #233, .F. ) ;
#436 = AXIS2_PLACEMENT_3D ( 'NONE', #547, #283, #336 ) ;
#437 = CARTESIAN_POINT ( 'NONE',  ( 1.270000000000000018, -25.00000000000000000, -0.2499999999999996392 ) ) ;
#438 =( NAMED_UNIT ( * ) SI_UNIT ( $, .STERADIAN. ) SOLID_ANGLE_UNIT ( ) );
#439 = DIRECTION ( 'NONE',  ( 0.000000000000000000, 0.000000000000000000, 1.000000000000000000 ) ) ;
#440 = DIRECTION ( 'NONE',  ( -0.000000000000000000, 1.000000000000000000, -0.000000000000000000 ) ) ;
#441 = CARTESIAN_POINT ( 'NONE',  ( -1.270000000000000018, 0.000000000000000000, 1.073739669005522480E-17 ) ) ;
#442 = UNCERTAINTY_MEASURE_WITH_UNIT (LENGTH_MEASURE( 1.000000000000000082E-05 ), #176, 'distance_accuracy_value', 'NONE');
#443 = FACE_OUTER_BOUND ( 'NONE', #115, .T. ) ;
#444 = LINE ( 'NONE', #43, #587 ) ;
#445 =( LENGTH_UNIT ( ) NAMED_UNIT ( * ) SI_UNIT ( .MILLI., .METRE. ) );
#446 = EDGE_CURVE ( 'NONE', #408, #366, #582, .T. ) ;
#447 =( NAMED_UNIT ( * ) SI_UNIT ( $, .STERADIAN. ) SOLID_ANGLE_UNIT ( ) );
#448 = CARTESIAN_POINT ( 'NONE',  ( 3.612708057484692097E-16, 0.000000000000000000, -2.950000000000000178 ) ) ;
#449 = MECHANICAL_DESIGN_GEOMETRIC_PRESENTATION_REPRESENTATION (  '', ( #460 ), #509 ) ;
#450 = CYLINDRICAL_SURFACE ( 'NONE', #489, 2.950000000000000178 ) ;
#451 = ORIENTED_EDGE ( 'NONE', *, *, #545, .F. ) ;
#452 = FILL_AREA_STYLE ('',( #550 ) ) ;
#453 = ORIENTED_EDGE ( 'NONE', *, *, #446, .F. ) ;
#454 = COLOUR_RGB ( '',0.7529411764705882248, 0.7529411764705882248, 0.7529411764705882248 ) ;
#455 = CLOSED_SHELL ( 'NONE', ( #404, #617, #206, #475 ) ) ;
#456 = CIRCLE ( 'NONE', #392, 2.500000000000000000 ) ;
#457 = DIRECTION ( 'NONE',  ( -1.000000000000000000, 4.336808689942017736E-16, 0.000000000000000000 ) ) ;
#458 = DIRECTION ( 'NONE',  ( 0.000000000000000000, 0.000000000000000000, 1.000000000000000000 ) ) ;
#459 = SURFACE_STYLE_USAGE ( .BOTH. , #463 ) ;
#460 = STYLED_ITEM ( 'NONE', ( #421 ), #521 ) ;
#461 = VECTOR ( 'NONE', #324, 1000.000000000000000 ) ;
#462 = AXIS2_PLACEMENT_3D ( 'NONE', #441, #539, #215 ) ;
#463 = SURFACE_SIDE_STYLE ('',( #13 ) ) ;
#464 =( LENGTH_UNIT ( ) NAMED_UNIT ( * ) SI_UNIT ( .MILLI., .METRE. ) );
#465 = ADVANCED_FACE ( 'NONE', ( #162 ), #390, .F. ) ;
#466 = FACE_OUTER_BOUND ( 'NONE', #619, .T. ) ;
#467 = DIRECTION ( 'NONE',  ( 0.000000000000000000, 0.000000000000000000, 1.000000000000000000 ) ) ;
#468 = ORIENTED_EDGE ( 'NONE', *, *, #400, .T. ) ;
#469 = EDGE_CURVE ( 'NONE', #48, #326, #282, .T. ) ;
#470 = AXIS2_PLACEMENT_3D ( 'NONE', #254, #355, #610 ) ;
#471 = CARTESIAN_POINT ( 'NONE',  ( 0.000000000000000000, 0.000000000000000000, 0.000000000000000000 ) ) ;
#472 = CARTESIAN_POINT ( 'NONE',  ( -1.270000000000000018, -25.00000000000000000, 0.2499999999999999445 ) ) ;
#473 = ORIENTED_EDGE ( 'NONE', *, *, #478, .F. ) ;
#474 = ORIENTED_EDGE ( 'NONE', *, *, #195, .T. ) ;
#475 = ADVANCED_FACE ( 'NONE', ( #401 ), #66, .F. ) ;
#476 =( LENGTH_UNIT ( ) NAMED_UNIT ( * ) SI_UNIT ( .MILLI., .METRE. ) );
#477 = DIRECTION ( 'NONE',  ( 0.000000000000000000, -1.000000000000000000, 0.000000000000000000 ) ) ;
#478 = EDGE_CURVE ( 'NONE', #535, #385, #667, .T. ) ;
#479 = DIRECTION ( 'NONE',  ( -0.000000000000000000, 1.000000000000000000, -0.000000000000000000 ) ) ;
#480 = COLOUR_RGB ( '',0.7529411764705882248, 0.7529411764705882248, 0.7529411764705882248 ) ;
#481 = EDGE_LOOP ( 'NONE', ( #93, #383, #579, #2 ) ) ;
#482 = AXIS2_PLACEMENT_3D ( 'NONE', #570, #477, #419 ) ;
#483 = DIRECTION ( 'NONE',  ( -0.000000000000000000, 1.000000000000000000, -0.000000000000000000 ) ) ;
#484 =( NAMED_UNIT ( * ) SI_UNIT ( $, .STERADIAN. ) SOLID_ANGLE_UNIT ( ) );
#485 = FACE_OUTER_BOUND ( 'NONE', #17, .T. ) ;
#486 = ORIENTED_EDGE ( 'NONE', *, *, #616, .T. ) ;
#487 = DIRECTION ( 'NONE',  ( -0.000000000000000000, 1.000000000000000000, -0.000000000000000000 ) ) ;
#488 = DIRECTION ( 'NONE',  ( -0.000000000000000000, 1.000000000000000000, -0.000000000000000000 ) ) ;
#489 = AXIS2_PLACEMENT_3D ( 'NONE', #655, #303, #161 ) ;
#490 = FILL_AREA_STYLE ('',( #10 ) ) ;
#491 = FILL_AREA_STYLE_COLOUR ( '', #7 ) ;
#492 = UNCERTAINTY_MEASURE_WITH_UNIT (LENGTH_MEASURE( 1.000000000000000082E-05 ), #558, 'distance_accuracy_value', 'NONE');
#493 = ORIENTED_EDGE ( 'NONE', *, *, #195, .F. ) ;
#494 = EDGE_LOOP ( 'NONE', ( #311, #564 ) ) ;
#495 = EDGE_CURVE ( 'NONE', #326, #535, #92, .T. ) ;
#496 = STYLED_ITEM ( 'NONE', ( #641 ), #61 ) ;
#497 = DIRECTION ( 'NONE',  ( -0.000000000000000000, 1.000000000000000000, -0.000000000000000000 ) ) ;
#498 = CARTESIAN_POINT ( 'NONE',  ( -1.270000000000000018, 0.000000000000000000, 1.073739669005522480E-17 ) ) ;
#499 = AXIS2_PLACEMENT_3D ( 'NONE', #173, #384, #458 ) ;
#500 = CYLINDRICAL_SURFACE ( 'NONE', #42, 2.500000000000000000 ) ;
#501 = ORIENTED_EDGE ( 'NONE', *, *, #674, .F. ) ;
#502 =( NAMED_UNIT ( * ) SI_UNIT ( $, .STERADIAN. ) SOLID_ANGLE_UNIT ( ) );
#503 =( NAMED_UNIT ( * ) PLANE_ANGLE_UNIT ( ) SI_UNIT ( $, .RADIAN. ) );
#504 = ORIENTED_EDGE ( 'NONE', *, *, #297, .T. ) ;
#505 = EDGE_CURVE ( 'NONE', #270, #99, #294, .T. ) ;
#506 = ORIENTED_EDGE ( 'NONE', *, *, #55, .T. ) ;
#507 = DIRECTION ( 'NONE',  ( -0.000000000000000000, 1.000000000000000000, -0.000000000000000000 ) ) ;
#508 = CARTESIAN_POINT ( 'NONE',  ( 2.500000000000003553, 8.599999999999997868, 1.566045976336577716 ) ) ;
#509 =( GEOMETRIC_REPRESENTATION_CONTEXT ( 3 ) GLOBAL_UNCERTAINTY_ASSIGNED_CONTEXT ( ( #636 ) ) GLOBAL_UNIT_ASSIGNED_CONTEXT ( ( #464, #503, #654 ) ) REPRESENTATION_CONTEXT ( 'NONE', 'WORKASPACE' ) );
#510 = CARTESIAN_POINT ( 'NONE',  ( -1.270000000000000018, -25.00000000000000000, -0.2499999999999999445 ) ) ;
#511 = CARTESIAN_POINT ( 'NONE',  ( 1.270000000000000018, -25.00000000000000000, 0.2500000000000002776 ) ) ;
#512 = FACE_OUTER_BOUND ( 'NONE', #320, .T. ) ;
#513 = ORIENTED_EDGE ( 'NONE', *, *, #179, .T. ) ;
#514 = CARTESIAN_POINT ( 'NONE',  ( 0.000000000000000000, 1.000000000000000000, 0.000000000000000000 ) ) ;
#515 = CARTESIAN_POINT ( 'NONE',  ( 1.270000000000000018, 0.000000000000000000, 3.217976836734829532E-16 ) ) ;
#516 = FILL_AREA_STYLE ('',( #426 ) ) ;
#517 = MECHANICAL_DESIGN_GEOMETRIC_PRESENTATION_REPRESENTATION (  '', ( #428 ), #663 ) ;
#518 = APPLICATION_CONTEXT ( 'automotive_design' ) ;
#519 = CARTESIAN_POINT ( 'NONE',  ( -1.270000000000000018, -27.00000000000000355, 0.2499999999999999445 ) ) ;
#520 = DIRECTION ( 'NONE',  ( -0.000000000000000000, 1.000000000000000000, -0.000000000000000000 ) ) ;
#521 = ADVANCED_FACE ( 'NONE', ( #537 ), #126, .F. ) ;
#522 = ORIENTED_EDGE ( 'NONE', *, *, #77, .T. ) ;
#523 = PRODUCT_CONTEXT ( 'NONE', #518, 'mechanical' ) ;
#524 = LINE ( 'NONE', #472, #672 ) ;
#525 = ORIENTED_EDGE ( 'NONE', *, *, #589, .F. ) ;
#526 = LINE ( 'NONE', #168, #603 ) ;
#527 = DIRECTION ( 'NONE',  ( -0.000000000000000000, 1.000000000000000000, -0.000000000000000000 ) ) ;
#528 = DIRECTION ( 'NONE',  ( 0.000000000000000000, 0.000000000000000000, 1.000000000000000000 ) ) ;
#529 = AXIS2_PLACEMENT_3D ( 'NONE', #208, #264, #46 ) ;
#530 = PRESENTATION_LAYER_ASSIGNMENT (  '', '', ( #496 ) ) ;
#531 = ADVANCED_FACE ( 'NONE', ( #146 ), #634, .T. ) ;
#532 = DIRECTION ( 'NONE',  ( 0.000000000000000000, 0.000000000000000000, 1.000000000000000000 ) ) ;
#533 = SURFACE_SIDE_STYLE ('',( #81 ) ) ;
#534 = DIRECTION ( 'NONE',  ( 0.000000000000000000, 0.000000000000000000, 1.000000000000000000 ) ) ;
#535 = VERTEX_POINT ( 'NONE', #239 ) ;
#536 = AXIS2_PLACEMENT_3D ( 'NONE', #604, #395, #295 ) ;
#537 = FACE_OUTER_BOUND ( 'NONE', #118, .T. ) ;
#538 = EDGE_LOOP ( 'NONE', ( #493, #650, #506, #235, #659 ) ) ;
#539 = DIRECTION ( 'NONE',  ( 0.000000000000000000, -1.000000000000000000, 0.000000000000000000 ) ) ;
#540 = CARTESIAN_POINT ( 'NONE',  ( 0.000000000000000000, 8.599999999999999645, 0.009999999999982486440 ) ) ;
#541 = FACE_OUTER_BOUND ( 'NONE', #621, .T. ) ;
#542 = EDGE_LOOP ( 'NONE', ( #321, #504, #127, #473 ) ) ;
#543 = CARTESIAN_POINT ( 'NONE',  ( -1.270000000000000018, -27.00000000000000355, -0.2499999999999999445 ) ) ;
#544 = LINE ( 'NONE', #508, #334 ) ;
#545 = EDGE_CURVE ( 'NONE', #279, #98, #280, .T. ) ;
#546 = UNCERTAINTY_MEASURE_WITH_UNIT (LENGTH_MEASURE( 1.000000000000000082E-05 ), #164, 'distance_accuracy_value', 'NONE');
#547 = CARTESIAN_POINT ( 'NONE',  ( 0.000000000000000000, 8.599999999999999645, 0.000000000000000000 ) ) ;
#548 = ORIENTED_EDGE ( 'NONE', *, *, #87, .T. ) ;
#549 = PRESENTATION_STYLE_ASSIGNMENT (( #95 ) ) ;
#550 = FILL_AREA_STYLE_COLOUR ( '', #623 ) ;
#551 = PRESENTATION_STYLE_ASSIGNMENT (( #224 ) ) ;
#552 = CARTESIAN_POINT ( 'NONE',  ( 0.000000000000000000, 1.000000000000000000, 2.500000000000000000 ) ) ;
#553 = STYLED_ITEM ( 'NONE', ( #595 ), #367 ) ;
#554 = EDGE_CURVE ( 'NONE', #48, #385, #651, .T. ) ;
#555 = ADVANCED_FACE ( 'NONE', ( #128 ), #180, .F. ) ;
#556 = VERTEX_POINT ( 'NONE', #552 ) ;
#557 = PRESENTATION_STYLE_ASSIGNMENT (( #459 ) ) ;
#558 =( LENGTH_UNIT ( ) NAMED_UNIT ( * ) SI_UNIT ( .MILLI., .METRE. ) );
#559 = DIRECTION ( 'NONE',  ( 0.000000000000000000, 0.000000000000000000, 1.000000000000000000 ) ) ;
#560 = SURFACE_SIDE_STYLE ('',( #49 ) ) ;
#561 = TOROIDAL_SURFACE ( 'NONE', #328, 0.01000000000000002623, 2.489999999999999769 ) ;
#562 = AXIS2_PLACEMENT_3D ( 'NONE', #574, #479, #226 ) ;
#563 =( GEOMETRIC_REPRESENTATION_CONTEXT ( 3 ) GLOBAL_UNCERTAINTY_ASSIGNED_CONTEXT ( ( #152 ) ) GLOBAL_UNIT_ASSIGNED_CONTEXT ( ( #476, #56, #151 ) ) REPRESENTATION_CONTEXT ( 'NONE', 'WORKASPACE' ) );
#564 = ORIENTED_EDGE ( 'NONE', *, *, #478, .T. ) ;
#565 = DIRECTION ( 'NONE',  ( 0.000000000000000000, 0.000000000000000000, 1.000000000000000000 ) ) ;
#566 = AXIS2_PLACEMENT_3D ( 'NONE', #229, #337, #649 ) ;
#567 = DIRECTION ( 'NONE',  ( 0.000000000000000000, -1.000000000000000000, 0.000000000000000000 ) ) ;
#568 = DIRECTION ( 'NONE',  ( 0.000000000000000000, -1.000000000000000000, 0.000000000000000000 ) ) ;
#569 = CARTESIAN_POINT ( 'NONE',  ( 2.500000000000003553, 8.599999999999997868, -1.566045976336577716 ) ) ;
#570 = CARTESIAN_POINT ( 'NONE',  ( 1.270000000000000018, -25.00000000000000000, 3.217976836734829532E-16 ) ) ;
#571 = VERTEX_POINT ( 'NONE', #412 ) ;
#572 = DIRECTION ( 'NONE',  ( 0.000000000000000000, 0.000000000000000000, -1.000000000000000000 ) ) ;
#573 = FACE_OUTER_BOUND ( 'NONE', #494, .T. ) ;
#574 = CARTESIAN_POINT ( 'NONE',  ( -1.270000000000000018, -25.00000000000000000, 1.073739669005522480E-17 ) ) ;
#575 = EDGE_CURVE ( 'NONE', #385, #535, #4, .T. ) ;
#576 = PLANE ( 'NONE',  #342 ) ;
#577 = DIRECTION ( 'NONE',  ( 0.000000000000000000, -0.000000000000000000, -1.000000000000000000 ) ) ;
#578 = CIRCLE ( 'NONE', #377, 2.500000000000000000 ) ;
#579 = ORIENTED_EDGE ( 'NONE', *, *, #580, .T. ) ;
#580 = EDGE_CURVE ( 'NONE', #99, #571, #544, .T. ) ;
#581 = UNCERTAINTY_MEASURE_WITH_UNIT (LENGTH_MEASURE( 1.000000000000000082E-05 ), #364, 'distance_accuracy_value', 'NONE');
#582 = CIRCLE ( 'NONE', #499, 0.2499999999999999445 ) ;
#583 = CARTESIAN_POINT ( 'NONE',  ( 0.000000000000000000, 0.000000000000000000, 0.000000000000000000 ) ) ;
#584 = SURFACE_STYLE_USAGE ( .BOTH. , #533 ) ;
#585 = FILL_AREA_STYLE ('',( #154 ) ) ;
#586 = CARTESIAN_POINT ( 'NONE',  ( 2.500000000000000000, 1.000000000000000000, 0.000000000000000000 ) ) ;
#587 = VECTOR ( 'NONE', #144, 1000.000000000000000 ) ;
#588 = STYLED_ITEM ( 'NONE', ( #551 ), #394 ) ;
#589 = EDGE_CURVE ( 'NONE', #601, #139, #191, .T. ) ;
#590 = SURFACE_STYLE_FILL_AREA ( #452 ) ;
#591 =( NAMED_UNIT ( * ) SI_UNIT ( $, .STERADIAN. ) SOLID_ANGLE_UNIT ( ) );
#592 = VERTEX_POINT ( 'NONE', #511 ) ;
#593 =( NAMED_UNIT ( * ) PLANE_ANGLE_UNIT ( ) SI_UNIT ( $, .RADIAN. ) );
#594 = VERTEX_POINT ( 'NONE', #665 ) ;
#595 = PRESENTATION_STYLE_ASSIGNMENT (( #54 ) ) ;
#596 = SURFACE_SIDE_STYLE ('',( #169 ) ) ;
#597 = PRESENTATION_LAYER_ASSIGNMENT (  '', '', ( #428 ) ) ;
#598 = STYLED_ITEM ( 'NONE', ( #557 ), #475 ) ;
#599 = DIRECTION ( 'NONE',  ( 0.000000000000000000, -1.000000000000000000, 0.000000000000000000 ) ) ;
#600 = LINE ( 'NONE', #182, #630 ) ;
#601 = VERTEX_POINT ( 'NONE', #361 ) ;
#602 = CARTESIAN_POINT ( 'NONE',  ( 2.500000000000000000, 1.000000000000000000, -2.950000000000000178 ) ) ;
#603 = VECTOR ( 'NONE', #271, 1000.000000000000000 ) ;
#604 = CARTESIAN_POINT ( 'NONE',  ( 1.270000000000000018, 0.000000000000000000, 3.217976836734829532E-16 ) ) ;
#605 = AXIS2_PLACEMENT_3D ( 'NONE', #583, #626, #532 ) ;
#606 = ORIENTED_EDGE ( 'NONE', *, *, #627, .T. ) ;
#607 = ORIENTED_EDGE ( 'NONE', *, *, #184, .T. ) ;
#608 =( NAMED_UNIT ( * ) PLANE_ANGLE_UNIT ( ) SI_UNIT ( $, .RADIAN. ) );
#609 = AXIS2_PLACEMENT_3D ( 'NONE', #236, #599, #292 ) ;
#610 = DIRECTION ( 'NONE',  ( 0.000000000000000000, 0.000000000000000000, 1.000000000000000000 ) ) ;
#611 = CIRCLE ( 'NONE', #529, 0.2499999999999999445 ) ;
#612 = ORIENTED_EDGE ( 'NONE', *, *, #248, .F. ) ;
#613 = DIRECTION ( 'NONE',  ( -0.000000000000000000, 1.000000000000000000, -0.000000000000000000 ) ) ;
#614 = AXIS2_PLACEMENT_3D ( 'NONE', #642, #285, #20 ) ;
#615 = CARTESIAN_POINT ( 'NONE',  ( 0.000000000000000000, 1.000000000000000000, 0.000000000000000000 ) ) ;
#616 = EDGE_CURVE ( 'NONE', #119, #556, #218, .T. ) ;
#617 = ADVANCED_FACE ( 'NONE', ( #32 ), #422, .T. ) ;
#618 = FACE_OUTER_BOUND ( 'NONE', #253, .T. ) ;
#619 = EDGE_LOOP ( 'NONE', ( #348, #486, #247, #316 ) ) ;
#620 = VECTOR ( 'NONE', #94, 1000.000000000000000 ) ;
#621 = EDGE_LOOP ( 'NONE', ( #393, #225 ) ) ;
#622 = DIRECTION ( 'NONE',  ( 0.000000000000000000, 0.000000000000000000, 1.000000000000000000 ) ) ;
#623 = COLOUR_RGB ( '',0.7529411764705882248, 0.7529411764705882248, 0.7529411764705882248 ) ;
#624 = UNCERTAINTY_MEASURE_WITH_UNIT (LENGTH_MEASURE( 1.000000000000000082E-05 ), #631, 'distance_accuracy_value', 'NONE');
#625 = ADVANCED_FACE ( 'NONE', ( #262 ), #349, .T. ) ;
#626 = DIRECTION ( 'NONE',  ( -0.000000000000000000, 1.000000000000000000, -0.000000000000000000 ) ) ;
#627 = EDGE_CURVE ( 'NONE', #408, #594, #130, .T. ) ;
#628 = SURFACE_STYLE_USAGE ( .BOTH. , #3 ) ;
#629 = CARTESIAN_POINT ( 'NONE',  ( 2.499999999999999556, 0.000000000000000000, -2.950000000000000178 ) ) ;
#630 = VECTOR ( 'NONE', #194, 1000.000000000000000 ) ;
#631 =( LENGTH_UNIT ( ) NAMED_UNIT ( * ) SI_UNIT ( .MILLI., .METRE. ) );
#632 = EDGE_LOOP ( 'NONE', ( #234, #287, #159, #660 ) ) ;
#633 = SURFACE_SIDE_STYLE ('',( #664 ) ) ;
#634 = TOROIDAL_SURFACE ( 'NONE', #251, 0.01000000000000002623, 2.489999999999999769 ) ;
#635 =( NAMED_UNIT ( * ) SI_UNIT ( $, .STERADIAN. ) SOLID_ANGLE_UNIT ( ) );
#636 = UNCERTAINTY_MEASURE_WITH_UNIT (LENGTH_MEASURE( 1.000000000000000082E-05 ), #464, 'distance_accuracy_value', 'NONE');
#637 = VECTOR ( 'NONE', #44, 1000.000000000000000 ) ;
#638 = ORIENTED_EDGE ( 'NONE', *, *, #365, .T. ) ;
#639 = ORIENTED_EDGE ( 'NONE', *, *, #575, .F. ) ;
#640 = PRESENTATION_LAYER_ASSIGNMENT (  '', '', ( #305 ) ) ;
#641 = PRESENTATION_STYLE_ASSIGNMENT (( #584 ) ) ;
#642 = CARTESIAN_POINT ( 'NONE',  ( 0.009999999999982245313, 8.599999999999999645, 0.000000000000000000 ) ) ;
#643 = CARTESIAN_POINT ( 'NONE',  ( 2.500000000000000000, 1.000000000000000000, -2.950000000000000178 ) ) ;
#644 = AXIS2_PLACEMENT_3D ( 'NONE', #123, #185, #402 ) ;
#645 = EDGE_CURVE ( 'NONE', #666, #571, #111, .T. ) ;
#646 = PLANE ( 'NONE',  #566 ) ;
#647 = DIRECTION ( 'NONE',  ( -0.000000000000000000, -0.000000000000000000, 1.000000000000000000 ) ) ;
#648 = CYLINDRICAL_SURFACE ( 'NONE', #562, 0.2499999999999999445 ) ;
#649 = DIRECTION ( 'NONE',  ( 0.000000000000000000, 0.000000000000000000, 1.000000000000000000 ) ) ;
#650 = ORIENTED_EDGE ( 'NONE', *, *, #681, .F. ) ;
#651 = CIRCLE ( 'NONE', #86, 2.489999999999999769 ) ;
#652 = ORIENTED_EDGE ( 'NONE', *, *, #163, .T. ) ;
#653 = MECHANICAL_DESIGN_GEOMETRIC_PRESENTATION_REPRESENTATION (  '', ( #496 ), #563 ) ;
#654 =( NAMED_UNIT ( * ) SI_UNIT ( $, .STERADIAN. ) SOLID_ANGLE_UNIT ( ) );
#655 = CARTESIAN_POINT ( 'NONE',  ( 0.000000000000000000, 8.599999999999999645, 0.000000000000000000 ) ) ;
#656 = AXIS2_PLACEMENT_3D ( 'NONE', #335, #15, #243 ) ;
#657 = AXIS2_PLACEMENT_3D ( 'NONE', #26, #405, #135 ) ;
#658 = DIRECTION ( 'NONE',  ( 1.000000000000000000, 0.000000000000000000, 1.224646799147353207E-16 ) ) ;
#659 = ORIENTED_EDGE ( 'NONE', *, *, #580, .F. ) ;
#660 = ORIENTED_EDGE ( 'NONE', *, *, #19, .T. ) ;
#661 = SHAPE_DEFINITION_REPRESENTATION ( #675, #61 ) ;
#662 = UNCERTAINTY_MEASURE_WITH_UNIT (LENGTH_MEASURE( 1.000000000000000082E-05 ), #241, 'distance_accuracy_value', 'NONE');
#663 =( GEOMETRIC_REPRESENTATION_CONTEXT ( 3 ) GLOBAL_UNCERTAINTY_ASSIGNED_CONTEXT ( ( #662 ) ) GLOBAL_UNIT_ASSIGNED_CONTEXT ( ( #241, #83, #133 ) ) REPRESENTATION_CONTEXT ( 'NONE', 'WORKASPACE' ) );
#664 = SURFACE_STYLE_FILL_AREA ( #278 ) ;
#665 = CARTESIAN_POINT ( 'NONE',  ( -1.270000000000000018, 0.000000000000000000, -0.2499999999999999445 ) ) ;
#666 = VERTEX_POINT ( 'NONE', #142 ) ;
#667 = CIRCLE ( 'NONE', #331, 0.009999999999982486440 ) ;
#668 = DIRECTION ( 'NONE',  ( -0.000000000000000000, 1.000000000000000000, -0.000000000000000000 ) ) ;
#669 =( NAMED_UNIT ( * ) PLANE_ANGLE_UNIT ( ) SI_UNIT ( $, .RADIAN. ) );
#670 = CIRCLE ( 'NONE', #22, 2.950000000000000178 ) ;
#671 = ORIENTED_EDGE ( 'NONE', *, *, #65, .T. ) ;
#672 = VECTOR ( 'NONE', #359, 1000.000000000000000 ) ;
#673 = DIRECTION ( 'NONE',  ( -0.000000000000000000, -0.000000000000000000, 1.000000000000000000 ) ) ;
#674 = EDGE_CURVE ( 'NONE', #366, #333, #524, .T. ) ;
#675 = PRODUCT_DEFINITION_SHAPE ( 'NONE', 'NONE',  #411 ) ;
#676 = DIRECTION ( 'NONE',  ( 0.000000000000000000, -1.000000000000000000, 0.000000000000000000 ) ) ;
#677 = DIRECTION ( 'NONE',  ( 0.000000000000000000, 0.000000000000000000, 1.000000000000000000 ) ) ;
#678 = PRESENTATION_LAYER_ASSIGNMENT (  '', '', ( #288 ) ) ;
#679 =( NAMED_UNIT ( * ) PLANE_ANGLE_UNIT ( ) SI_UNIT ( $, .RADIAN. ) );
#680 = COLOUR_RGB ( '',0.7921568627450980005, 0.8196078431372548767, 0.9333333333333333481 ) ;
#681 = EDGE_CURVE ( 'NONE', #38, #601, #343, .T. ) ;
ENDSEC;
END-ISO-10303-21;
